<?xml version="1.0" encoding="UTF-8"?>
<svg xmlns="http://www.w3.org/2000/svg" xmlns:xlink="http://www.w3.org/1999/xlink" width="32px" height="32px" viewBox="0 0 32 32" version="1.1">
<g id="surface1">
<path style="fill-rule:nonzero;fill:rgb(100%,100%,100%);fill-opacity:1;stroke-width:1;stroke-linecap:butt;stroke-linejoin:miter;stroke:rgb(100%,100%,100%);stroke-opacity:1;stroke-miterlimit:4;" d="M 58.73291 160.477295 L 79.991455 160.477295 C 83.320312 160.477295 85.98999 157.807617 85.98999 154.47876 C 85.98999 151.182861 83.320312 148.480225 79.991455 148.480225 L 64.731445 148.480225 L 64.731445 140.998535 L 79.991455 140.998535 C 83.320312 140.998535 85.98999 138.328857 85.98999 135 C 85.98999 131.671143 83.320312 129.001465 79.991455 129.001465 L 64.731445 129.001465 L 64.731445 121.519775 L 79.991455 121.519775 C 83.320312 121.519775 85.98999 118.817139 85.98999 115.52124 C 85.98999 112.192383 83.320312 109.522705 79.991455 109.522705 L 58.73291 109.522705 C 55.437012 109.522705 52.734375 112.192383 52.734375 115.52124 L 52.734375 154.47876 C 52.734375 157.807617 55.437012 160.477295 58.73291 160.477295 Z M 58.73291 160.477295 " transform="matrix(0.118519,0,0,0.118519,0,0)"/>
<path style="fill-rule:nonzero;fill:rgb(100%,100%,100%);fill-opacity:1;stroke-width:1;stroke-linecap:butt;stroke-linejoin:miter;stroke:rgb(100%,100%,100%);stroke-opacity:1;stroke-miterlimit:4;" d="M 95.712891 159.158936 C 96.800537 160.048828 98.151855 160.477295 99.470215 160.477295 C 101.217041 160.477295 102.963867 159.719238 104.150391 158.269043 L 115.224609 144.525146 L 126.331787 158.269043 C 127.518311 159.719238 129.265137 160.477295 131.011963 160.477295 C 132.330322 160.477295 133.648682 160.048828 134.769287 159.158936 C 137.340088 157.08252 137.735596 153.292236 135.65918 150.721436 L 122.937012 135 L 135.65918 119.278564 C 137.735596 116.707764 137.340088 112.91748 134.769287 110.841064 C 132.198486 108.764648 128.408203 109.160156 126.331787 111.730957 L 115.224609 125.474854 L 104.150391 111.730957 C 102.041016 109.160156 98.283691 108.764648 95.712891 110.841064 C 93.109131 112.91748 92.713623 116.707764 94.822998 119.278564 L 107.512207 135 L 94.822998 150.721436 C 92.713623 153.292236 93.109131 157.08252 95.712891 159.158936 Z M 95.712891 159.158936 " transform="matrix(0.118519,0,0,0.118519,0,0)"/>
<path style="fill-rule:nonzero;fill:rgb(100%,100%,100%);fill-opacity:1;stroke-width:1;stroke-linecap:butt;stroke-linejoin:miter;stroke:rgb(100%,100%,100%);stroke-opacity:1;stroke-miterlimit:4;" d="M 155.072021 160.477295 C 158.400879 160.477295 161.070557 157.807617 161.070557 154.47876 L 161.070557 115.52124 C 161.070557 112.192383 158.400879 109.522705 155.072021 109.522705 C 151.776123 109.522705 149.073486 112.192383 149.073486 115.52124 L 149.073486 154.47876 C 149.073486 157.807617 151.776123 160.477295 155.072021 160.477295 Z M 155.072021 160.477295 " transform="matrix(0.118519,0,0,0.118519,0,0)"/>
<path style="fill-rule:nonzero;fill:rgb(100%,100%,100%);fill-opacity:1;stroke-width:1;stroke-linecap:butt;stroke-linejoin:miter;stroke:rgb(100%,100%,100%);stroke-opacity:1;stroke-miterlimit:4;" d="M 175.704346 121.519775 L 187.470703 121.519775 L 187.470703 154.47876 C 187.470703 157.807617 190.17334 160.477295 193.469238 160.477295 C 196.798096 160.477295 199.500732 157.807617 199.500732 154.47876 L 199.500732 121.519775 L 211.26709 121.519775 C 214.562988 121.519775 217.265625 118.817139 217.265625 115.52124 C 217.265625 112.192383 214.562988 109.522705 211.26709 109.522705 L 175.704346 109.522705 C 172.408447 109.522705 169.705811 112.192383 169.705811 115.52124 C 169.705811 118.817139 172.408447 121.519775 175.704346 121.519775 Z M 175.704346 121.519775 " transform="matrix(0.118519,0,0,0.118519,0,0)"/>
<path style="fill-rule:nonzero;fill:rgb(100%,100%,100%);fill-opacity:1;stroke-width:1;stroke-linecap:butt;stroke-linejoin:miter;stroke:rgb(100%,100%,100%);stroke-opacity:1;stroke-miterlimit:4;" d="M 264.001465 76.102295 L 5.998535 76.102295 C 2.702637 76.102295 0 78.771973 0 82.10083 L 0 187.89917 C 0 191.228027 2.702637 193.897705 5.998535 193.897705 L 264.001465 193.897705 C 267.297363 193.897705 270 191.228027 270 187.89917 L 270 82.10083 C 270 78.771973 267.297363 76.102295 264.001465 76.102295 Z M 258.00293 181.900635 L 11.99707 181.900635 L 11.99707 88.099365 L 258.00293 88.099365 Z M 258.00293 181.900635 " transform="matrix(0.118519,0,0,0.118519,0,0)"/>
</g>
</svg>
